<svg width="207" height="414" viewBox="0 0 207 414" fill="none" xmlns="http://www.w3.org/2000/svg">
<path fill-rule="evenodd" clip-rule="evenodd" d="M0 414C111.189 414 201.903 326.334 206.793 216.351C193.884 315.185 109.354 391.5 7 391.5C4.6571 391.5 2.32355 391.46 0 391.381V414ZM0 388.379C2.32343 388.459 4.65698 388.5 7 388.5C116.629 388.5 205.5 299.629 205.5 190C205.5 186.636 205.416 183.291 205.251 179.968C192.006 78.4178 105.161 0 0 0V388.379ZM84.9132 157.714H133.26V179.892H84.9132V157.714ZM49.4294 157.714H27.2521V179.892H49.4294V157.714ZM84.9132 198.521H119.953V220.698H84.9132V198.521ZM133.26 239.327H84.9132V261.504H133.26V239.327ZM56.0826 157.714H78.26V261.504H56.0826V157.714Z" fill="white"/>
</svg>
